# xmcd
#
# Track frame offsets:
#	150
#	15848
#	38149
#	54001
#	69764
#	83942
#	99714
#	117723
#	130194
#	145041
#	157921
#	171218
#	187536
#	202722
#	215180
#
# Disc length: 3060 seconds
#
# Revision: 1
# Processed by: cddbd v1.5.2PL0 Copyright (c) Steve Scherf et al.
# Submitted via: audiograbber 1.83.01
#
DISCID=b90bf20f
DTITLE=Various Artist - PS 139
DYEAR=1900
DGENRE=
TTITLE0=JOHN CONLEEL - FRIDAY NIGHT BLUES
TTITLE1=CONWAY TWITTY - RED NECKIN' LOVE MAKING NIGHT
TTITLE2=VINCE GILL - IF YOU EVER HAVE FOREVER IN MIND
TTITLE3=RONNIE MILSAP - THERE'S NO GETTING OVER ME
TTITLE4=CHARLIE PRIDE - MOUNTAIN OF LOVE
TTITLE5=DOLLY PARTON - YOU'RE THE ONLY ONE
TTITLE6=DON WILLIAMS - LORD I HOPE THIS DAY IS GOOD
TTITLE7=GENE WATSON - SHOULD I COME HOME OR SHOULD I GO CRAZY
TTITLE8=DOTTI WEST - WHAT ARE WE DOIN' IN LOVE
TTITLE9=HANK WILLIAMS JR. - DIXIE ON MY MIND
TTITLE10=JOHNNY LEE - ONE IN A MILLION
TTITLE11=ROSANNE CASH - MY BABY THINKS HE'S A TRAIN
TTITLE12=MICKEY GILLEY - YOU DON'T KNOW ME
TTITLE13=LARRY GATLIN - TRYIN' TO LOVE TWO WOMEN
TTITLE14=TANYA TUCKER - HER'S SOME LOVE
EXTD=
EXTT0=
EXTT1=
EXTT2=
EXTT3=
EXTT4=
EXTT5=
EXTT6=
EXTT7=
EXTT8=
EXTT9=
EXTT10=
EXTT11=
EXTT12=
EXTT13=
EXTT14=
PLAYORDER=
